<svg xmlns="http://www.w3.org/2000/svg" width="900" height="500" viewBox="0 0 900 500" role="img" aria-labelledby="title desc"><title id="title">Mysteric-Net dynamics and tracking concept</title><desc id="desc">A multi-joint Lagrangian model and temporal network for hysteretic friction combine into learned inverse dynamics. The model supports joint torque estimation and feedforward tracking control. This is a concept illustration, not an original paper figure or measured result.</desc><defs><marker id="arrow-1f6f64" viewBox="0 0 10 10" refX="8.4" refY="5" markerWidth="7" markerHeight="7" orient="auto-start-reverse"><path d="M0 0 L10 5 L0 10 z" fill="#1f6f64"/></marker><marker id="arrow-b5653c" viewBox="0 0 10 10" refX="8.4" refY="5" markerWidth="7" markerHeight="7" orient="auto-start-reverse"><path d="M0 0 L10 5 L0 10 z" fill="#b5653c"/></marker><marker id="arrow-17212b" viewBox="0 0 10 10" refX="8.4" refY="5" markerWidth="7" markerHeight="7" orient="auto-start-reverse"><path d="M0 0 L10 5 L0 10 z" fill="#17212b"/></marker></defs><rect width="900" height="500" fill="#f7f8f5"/><g font-family="Arial, Helvetica, sans-serif"><text x="50" y="49" font-size="26" text-anchor="start" fill="#1f6f64" font-weight="700">MYSTERIC-NET</text><text x="134" y="106" font-size="24" text-anchor="middle" fill="#17212b" font-weight="500">Multiple joints</text><g transform="translate(98 150) scale(0.65)"><path d="M0 0 L65 78 L15 164" fill="none" stroke="#17212b" stroke-width="13" stroke-linecap="round" stroke-linejoin="round"/><circle cx="0" cy="0" r="12" fill="#ffffff" stroke="#1f6f64" stroke-width="4"/><circle cx="65" cy="78" r="11" fill="#ffffff" stroke="#1f6f64" stroke-width="4"/><rect x="-5" y="158" width="42" height="13" rx="6" fill="#17212b"/></g><g transform="translate(166 151) scale(0.65)"><path d="M0 0 L65 78 L15 164" fill="none" stroke="#17212b" stroke-width="13" stroke-linecap="round" stroke-linejoin="round"/><circle cx="0" cy="0" r="12" fill="#ffffff" stroke="#1f6f64" stroke-width="4"/><circle cx="65" cy="78" r="11" fill="#ffffff" stroke="#1f6f64" stroke-width="4"/><rect x="-5" y="158" width="42" height="13" rx="6" fill="#17212b"/></g><path d="M59 271 H241" stroke="#65716d" stroke-width="3"/><path d="M69 271 l-12 15" fill="none" stroke="#b9c2b8" stroke-width="2" stroke-linecap="round" stroke-linejoin="round"/><path d="M93 271 l-12 15" fill="none" stroke="#b9c2b8" stroke-width="2" stroke-linecap="round" stroke-linejoin="round"/><path d="M117 271 l-12 15" fill="none" stroke="#b9c2b8" stroke-width="2" stroke-linecap="round" stroke-linejoin="round"/><path d="M141 271 l-12 15" fill="none" stroke="#b9c2b8" stroke-width="2" stroke-linecap="round" stroke-linejoin="round"/><path d="M165 271 l-12 15" fill="none" stroke="#b9c2b8" stroke-width="2" stroke-linecap="round" stroke-linejoin="round"/><path d="M189 271 l-12 15" fill="none" stroke="#b9c2b8" stroke-width="2" stroke-linecap="round" stroke-linejoin="round"/><path d="M213 271 l-12 15" fill="none" stroke="#b9c2b8" stroke-width="2" stroke-linecap="round" stroke-linejoin="round"/><path d="M237 271 l-12 15" fill="none" stroke="#b9c2b8" stroke-width="2" stroke-linecap="round" stroke-linejoin="round"/><rect x="57" y="319" width="184" height="79" rx="18" fill="#fff9f3" stroke="#b5653c" stroke-width="2.5"/><text x="149.0" y="366.5" font-size="24" text-anchor="middle" fill="#17212b" font-weight="500">Joint history</text><path d="M246 358 L297 358" fill="none" stroke="#1f6f64" stroke-width="4" stroke-linecap="round" marker-end="url(#arrow-1f6f64)"/><rect x="310" y="301" width="265" height="111" rx="18" fill="#fff9f3" stroke="#b5653c" stroke-width="2.5"/><text x="442.5" y="349.5" font-size="23" text-anchor="middle" fill="#17212b" font-weight="500">Temporal network</text><text x="442.5" y="379.5" font-size="23" text-anchor="middle" fill="#17212b" font-weight="500">Hysteretic friction</text><path d="M242 217 L297 217" fill="none" stroke="#1f6f64" stroke-width="4" stroke-linecap="round" marker-end="url(#arrow-1f6f64)"/><rect x="310" y="146" width="265" height="111" rx="18" fill="#ffffff" stroke="#1f6f64" stroke-width="2.5"/><text x="442.5" y="194.5" font-size="23" text-anchor="middle" fill="#17212b" font-weight="500">Lagrangian model</text><text x="442.5" y="224.5" font-size="23" text-anchor="middle" fill="#17212b" font-weight="500">Conservative dynamics</text><path d="M575 202 H612 V277 H643" fill="none" stroke="#1f6f64" stroke-width="3" stroke-linecap="round" stroke-linejoin="round" marker-end="url(#arrow-1f6f64)"/><path d="M575 356 H612 V277" fill="none" stroke="#b5653c" stroke-width="3" stroke-linecap="round" stroke-linejoin="round"/><circle cx="668" cy="277" r="24" fill="#ffffff" stroke="#1f6f64" stroke-width="3"/><text x="668" y="285" font-size="28" text-anchor="middle" fill="#17212b" font-weight="500">+</text><path d="M697 277 H722 V174 H744" fill="none" stroke="#1f6f64" stroke-width="3" stroke-linecap="round" stroke-linejoin="round" marker-end="url(#arrow-1f6f64)"/><path d="M722 277 V367 H744" fill="none" stroke="#b5653c" stroke-width="3" stroke-linecap="round" stroke-linejoin="round" marker-end="url(#arrow-b5653c)"/><rect x="756" y="131" width="119" height="87" rx="18" fill="#ffffff" stroke="#1f6f64" stroke-width="2.5"/><text x="815.5" y="167.5" font-size="24" text-anchor="middle" fill="#17212b" font-weight="500">Joint</text><text x="815.5" y="197.5" font-size="24" text-anchor="middle" fill="#17212b" font-weight="500">torque</text><rect x="746" y="322" width="129" height="88" rx="18" fill="#fff9f3" stroke="#b5653c" stroke-width="2.5"/><text x="810.5" y="359.0" font-size="22" text-anchor="middle" fill="#17212b" font-weight="500">Tracking</text><text x="810.5" y="389.0" font-size="22" text-anchor="middle" fill="#17212b" font-weight="500">control</text><text x="450" y="471" font-size="20" text-anchor="middle" fill="#65716d" font-weight="400">Concept illustration</text></g></svg>