<svg xmlns="http://www.w3.org/2000/svg" viewBox="0 0 1800 1000" role="img" aria-label="Stylized robotics laboratory with legged robot test platforms">
  <defs>
    <linearGradient id="wall" x1="0" x2="1" y1="0" y2="1">
      <stop offset="0" stop-color="#eef2f1"/>
      <stop offset="0.56" stop-color="#c9d4d8"/>
      <stop offset="1" stop-color="#8fa2ad"/>
    </linearGradient>
    <linearGradient id="floor" x1="0" x2="1" y1="0" y2="1">
      <stop offset="0" stop-color="#51616b"/>
      <stop offset="1" stop-color="#1d2730"/>
    </linearGradient>
    <linearGradient id="metal" x1="0" x2="1">
      <stop offset="0" stop-color="#1c252d"/>
      <stop offset="0.48" stop-color="#596974"/>
      <stop offset="1" stop-color="#111820"/>
    </linearGradient>
    <filter id="softShadow" x="-20%" y="-20%" width="140%" height="140%">
      <feDropShadow dx="0" dy="24" stdDeviation="18" flood-color="#0b1116" flood-opacity="0.32"/>
    </filter>
  </defs>
  <rect width="1800" height="1000" fill="url(#wall)"/>
  <path d="M0 640 C330 588 648 610 960 640 C1256 669 1538 628 1800 594 L1800 1000 L0 1000 Z" fill="url(#floor)"/>
  <path d="M0 642 C322 601 662 626 960 654 C1254 681 1532 640 1800 610" fill="none" stroke="#d9e0df" stroke-width="4" opacity="0.35"/>
  <g opacity="0.58">
    <rect x="1140" y="130" width="420" height="250" fill="#edf2f0" stroke="#b7c3c2" stroke-width="8"/>
    <path d="M1184 202 H1518 M1184 260 H1505 M1184 318 H1452" stroke="#aab7b7" stroke-width="10" stroke-linecap="round"/>
    <path d="M1240 348 C1290 288 1330 286 1380 334 C1430 382 1465 380 1500 310" fill="none" stroke="#71848c" stroke-width="7" stroke-linecap="round"/>
  </g>
  <g opacity="0.64">
    <rect x="962" y="284" width="70" height="250" rx="6" fill="#26333b"/>
    <rect x="1055" y="306" width="82" height="228" rx="6" fill="#2f3f48"/>
    <rect x="1180" y="408" width="330" height="126" rx="10" fill="#1d2730"/>
    <rect x="1204" y="434" width="130" height="62" fill="#31424b"/>
    <rect x="1360" y="434" width="126" height="62" fill="#31424b"/>
  </g>
  <g filter="url(#softShadow)">
    <g transform="translate(250 238)">
      <rect x="0" y="-80" width="34" height="604" fill="#121920"/>
      <rect x="390" y="-50" width="34" height="570" fill="#121920"/>
      <rect x="-18" y="510" width="470" height="28" fill="#111820"/>
      <rect x="108" y="115" width="220" height="76" rx="18" fill="url(#metal)"/>
      <circle cx="134" cy="219" r="34" fill="#151e25" stroke="#74858d" stroke-width="10"/>
      <circle cx="307" cy="218" r="34" fill="#151e25" stroke="#74858d" stroke-width="10"/>
      <path d="M137 245 L103 360 L127 376 L184 266 Z" fill="#202c34" stroke="#8a9ca4" stroke-width="9" stroke-linejoin="round"/>
      <path d="M306 246 L348 360 L325 378 L258 267 Z" fill="#202c34" stroke="#8a9ca4" stroke-width="9" stroke-linejoin="round"/>
      <path d="M102 362 L82 482 L122 486 L128 376 Z" fill="#172129" stroke="#9caab0" stroke-width="9" stroke-linejoin="round"/>
      <path d="M349 360 L374 482 L334 487 L324 378 Z" fill="#172129" stroke="#9caab0" stroke-width="9" stroke-linejoin="round"/>
      <rect x="54" y="478" width="106" height="20" rx="10" fill="#0f171e"/>
      <rect x="302" y="480" width="106" height="20" rx="10" fill="#0f171e"/>
      <path d="M166 117 C148 38 86 4 10 -4" fill="none" stroke="#162129" stroke-width="9" stroke-linecap="round"/>
      <path d="M272 118 C288 35 338 0 420 -6" fill="none" stroke="#162129" stroke-width="9" stroke-linecap="round"/>
      <circle cx="224" cy="154" r="18" fill="#b5653c"/>
    </g>
  </g>
  <g filter="url(#softShadow)">
    <g transform="translate(870 520)">
      <rect x="0" y="-68" width="326" height="88" rx="34" fill="url(#metal)"/>
      <rect x="108" y="-118" width="92" height="70" rx="16" fill="#2d3d45" stroke="#9cadaf" stroke-width="8"/>
      <circle cx="38" cy="28" r="30" fill="#101820" stroke="#9cabb0" stroke-width="10"/>
      <circle cx="114" cy="18" r="26" fill="#101820" stroke="#9cabb0" stroke-width="9"/>
      <circle cx="232" cy="18" r="26" fill="#101820" stroke="#9cabb0" stroke-width="9"/>
      <circle cx="312" cy="28" r="30" fill="#101820" stroke="#9cabb0" stroke-width="10"/>
      <path d="M36 54 L-8 154 L16 172 L86 58" fill="#19242c" stroke="#91a0a7" stroke-width="9" stroke-linejoin="round"/>
      <path d="M112 44 L82 166 L110 178 L160 52" fill="#1e2b33" stroke="#91a0a7" stroke-width="9" stroke-linejoin="round"/>
      <path d="M234 44 L268 166 L240 180 L186 52" fill="#1e2b33" stroke="#91a0a7" stroke-width="9" stroke-linejoin="round"/>
      <path d="M314 54 L374 154 L350 174 L266 58" fill="#19242c" stroke="#91a0a7" stroke-width="9" stroke-linejoin="round"/>
      <circle cx="0" cy="166" r="17" fill="#101820"/>
      <circle cx="104" cy="174" r="17" fill="#101820"/>
      <circle cx="250" cy="176" r="17" fill="#101820"/>
      <circle cx="362" cy="166" r="17" fill="#101820"/>
      <circle cx="168" cy="-26" r="12" fill="#1f6f64"/>
    </g>
  </g>
  <g opacity="0.72" filter="url(#softShadow)">
    <g transform="translate(1320 578) scale(0.72)">
      <rect x="0" y="-54" width="304" height="74" rx="28" fill="url(#metal)"/>
      <circle cx="36" cy="30" r="24" fill="#101820" stroke="#9cabb0" stroke-width="9"/>
      <circle cx="108" cy="20" r="22" fill="#101820" stroke="#9cabb0" stroke-width="8"/>
      <circle cx="218" cy="20" r="22" fill="#101820" stroke="#9cabb0" stroke-width="8"/>
      <circle cx="290" cy="30" r="24" fill="#101820" stroke="#9cabb0" stroke-width="9"/>
      <path d="M36 54 L-10 136 L12 152 L80 56" fill="#1d2830" stroke="#91a0a7" stroke-width="8"/>
      <path d="M108 44 L84 142 L108 152 L154 50" fill="#1d2830" stroke="#91a0a7" stroke-width="8"/>
      <path d="M218 44 L246 142 L222 154 L172 50" fill="#1d2830" stroke="#91a0a7" stroke-width="8"/>
      <path d="M290 54 L348 136 L326 154 L246 56" fill="#1d2830" stroke="#91a0a7" stroke-width="8"/>
      <circle cx="2" cy="150" r="15" fill="#101820"/>
      <circle cx="104" cy="150" r="15" fill="#101820"/>
      <circle cx="230" cy="150" r="15" fill="#101820"/>
      <circle cx="336" cy="150" r="15" fill="#101820"/>
    </g>
  </g>
  <g opacity="0.2">
    <path d="M92 840 C360 798 632 812 884 846 C1164 884 1428 842 1710 792" fill="none" stroke="#ffffff" stroke-width="3"/>
    <path d="M140 890 C426 852 668 870 930 902 C1200 934 1480 890 1704 854" fill="none" stroke="#ffffff" stroke-width="2"/>
  </g>
</svg>
